<?xml version="1.0" standalone="no"?>
<!DOCTYPE svg PUBLIC "-//W3C//DTD SVG 20010904//EN"
 "http://www.w3.org/TR/2001/REC-SVG-20010904/DTD/svg10.dtd">
<svg version="1.0" xmlns="http://www.w3.org/2000/svg"
 width="1024.000000pt" height="1024.000000pt" viewBox="0 0 1024.000000 1024.000000"
 preserveAspectRatio="xMidYMid meet">

<g transform="translate(0.000000,1024.000000) scale(0.100000,-0.100000)"
fill="#000000" stroke="none">
<path d="M0 5120 l0 -5120 5120 0 5120 0 0 5120 0 5120 -5120 0 -5120 0 0
-5120z m2104 3195 c5 -13 -65 -15 -589 -15 -522 0 -595 2 -595 15 0 13 72 15
589 15 514 0 590 -2 595 -15z m1016 -5 c0 -19 -7 -20 -265 -20 -214 0 -265 3
-265 13 0 8 3 17 7 20 3 4 123 7 265 7 251 0 258 -1 258 -20z m2320 3 c0 -17
-21 -18 -325 -15 -281 2 -323 5 -319 17 5 13 53 15 325 15 297 0 319 -1 319
-17z m1820 2 c0 -13 -53 -15 -420 -15 -367 0 -420 2 -420 15 0 13 53 15 420
15 367 0 420 -2 420 -15z m1030 -5 c0 -20 -7 -20 -280 -20 -273 0 -280 0 -280
20 0 20 7 20 280 20 273 0 280 0 280 -20z m1070 0 c0 -19 -7 -20 -250 -20
-213 0 -250 2 -250 15 0 9 6 12 15 9 8 -4 15 -1 15 5 0 8 70 11 235 11 228 0
235 -1 235 -20z m-8412 -298 c2 -187 2 -192 -18 -192 -19 0 -20 6 -20 196 0
181 1 195 18 192 15 -3 17 -22 20 -196z m1673 186 c-1 -5 -1 -91 -1 -193 0
-158 -2 -185 -15 -185 -13 0 -15 28 -15 196 0 171 2 195 16 192 8 -2 15 -6 15
-10z m479 -173 c0 -158 -2 -185 -15 -185 -13 0 -15 27 -15 185 0 158 2 185 15
185 13 0 15 -27 15 -185z m4680 -10 c0 -167 -2 -195 -15 -195 -13 0 -15 28
-15 195 0 167 2 195 15 195 13 0 15 -28 15 -195z m495 9 c0 -162 -2 -179 -17
-182 -17 -3 -18 11 -18 181 0 171 1 185 18 183 15 -3 17 -19 17 -182z m-6043
11 c37 -82 67 -155 67 -161 1 -7 -6 -15 -14 -18 -12 -4 -21 6 -34 37 -10 23
-44 97 -75 164 -31 67 -56 125 -56 128 0 4 10 5 22 3 18 -2 35 -31 90 -153z
m3369 -86 c21 -47 39 -88 39 -91 0 -3 -7 -8 -15 -12 -11 -4 -22 9 -39 47 -13
28 -39 86 -59 127 -33 70 -67 149 -67 155 0 2 8 5 18 7 13 3 25 -14 50 -72 18
-41 51 -114 73 -161z m759 216 c0 -6 -22 -57 -49 -111 -26 -54 -56 -120 -66
-146 -15 -41 -22 -48 -44 -48 -14 0 -21 4 -15 8 6 4 29 50 51 102 84 195 96
218 110 213 7 -3 13 -11 13 -18z m1006 -135 c36 -80 69 -149 75 -154 16 -17
10 -28 -13 -24 -31 4 -180 315 -158 328 8 5 18 6 22 2 5 -5 37 -73 74 -152z
m1464 150 c0 -6 -9 -28 -19 -48 -11 -21 -27 -64 -36 -97 -24 -88 -68 -184 -84
-185 -17 0 -13 19 29 130 17 47 41 113 53 148 15 45 26 62 39 62 10 0 18 -5
18 -10z m463 -6 c-1 -5 -27 -70 -57 -144 -31 -74 -56 -140 -56 -147 0 -15 -17
-26 -29 -19 -16 11 115 329 133 323 6 -3 10 -8 9 -13z m-4557 -75 c-18 -41
-36 -67 -43 -65 -7 3 -10 -1 -7 -9 5 -13 -17 -82 -47 -147 -7 -16 -20 -28 -31
-28 -10 0 -18 2 -18 5 0 4 57 135 95 220 8 17 20 47 29 67 11 28 19 35 34 31
19 -4 18 -8 -12 -74z m-2866 -269 c0 -19 -7 -20 -210 -20 -203 0 -210 1 -210
20 0 19 7 20 210 20 203 0 210 -1 210 -20z m5160 -1 c0 -18 -9 -19 -205 -19
-199 0 -205 1 -205 20 0 20 5 21 205 20 195 -1 205 -2 205 -21z m-1772 -184
c84 -214 97 -256 81 -266 -18 -11 -18 -12 -72 126 -113 291 -106 269 -88 276
9 4 19 4 22 0 3 -3 29 -64 57 -136z m-219 97 c-4 -15 -22 -65 -39 -112 -17
-47 -43 -122 -58 -168 -15 -46 -31 -80 -35 -75 -5 4 -5 0 -1 -10 5 -13 1 -17
-16 -17 -17 0 -21 4 -15 18 4 9 29 82 57 162 85 247 81 237 99 233 14 -4 15
-10 8 -31z m-4094 -177 c0 -182 -2 -200 -17 -203 -17 -3 -18 12 -18 203 0 191
1 206 18 203 15 -3 17 -21 17 -203z m1495 5 c0 -171 -2 -200 -15 -200 -13 0
-15 29 -15 200 0 171 2 200 15 200 13 0 15 -29 15 -200z m185 -2 c0 -108 -3
-199 -7 -203 -22 -23 -28 18 -28 206 0 186 1 200 18 197 15 -3 17 -21 17 -200z
m473 0 c-2 -150 -6 -202 -15 -206 -10 -3 -13 42 -13 202 0 178 2 206 15 206
13 0 15 -27 13 -202z m2689 119 c12 -40 37 -118 57 -175 35 -99 42 -132 30
-132 -8 0 -34 27 -34 36 0 5 -25 79 -56 166 -31 88 -53 165 -50 173 11 30 34
1 53 -68z m1993 -112 c0 -167 -2 -195 -15 -195 -13 0 -15 28 -15 195 0 167 2
195 15 195 13 0 15 -28 15 -195z m776 89 c-19 -54 -50 -137 -70 -184 -19 -47
-36 -91 -36 -97 0 -15 -9 -16 -29 -4 -11 7 -9 19 10 70 13 33 27 61 31 61 4 0
5 -7 2 -15 -4 -8 -4 -15 -1 -15 5 0 45 112 51 143 19 89 37 136 54 140 9 2 18
3 19 2 2 -1 -13 -46 -31 -101z m-6568 9 c60 -130 60 -130 16 -228 -27 -60 -43
-85 -56 -85 -16 0 -16 2 0 38 10 20 30 61 45 89 l27 53 -50 100 c-54 107 -58
120 -36 120 7 0 31 -39 54 -87z m2542 77 c0 -16 -89 -281 -104 -309 -8 -14
-17 -35 -21 -46 -5 -16 -8 -17 -15 -5 -5 9 2 42 21 94 35 93 50 137 74 219 10
33 23 57 31 57 8 0 14 -4 14 -10z m2060 -185 c0 -167 -2 -195 -15 -195 -13 0
-15 28 -15 195 0 167 2 195 15 195 13 0 15 -28 15 -195z m930 180 c0 -12 -36
-15 -229 -17 -212 -3 -230 -2 -235 15 -4 16 12 17 230 17 199 0 234 -2 234
-15z m720 -185 c0 -171 -2 -200 -15 -200 -13 0 -15 29 -15 200 0 171 2 200 15
200 13 0 15 -29 15 -200z m837 183 c-3 -10 -26 -67 -52 -128 -26 -60 -52 -128
-60 -150 -22 -66 -37 -95 -53 -95 -18 0 -19 -4 69 213 47 117 77 177 87 177 9
0 12 -6 9 -17z m-7667 -188 c0 -188 -1 -195 -20 -195 -19 0 -20 7 -20 188 0
104 3 192 7 195 3 4 12 7 20 7 10 0 13 -39 13 -195z m4710 0 c0 -186 -1 -195
-19 -195 -19 0 -19 8 -16 193 2 105 4 193 5 195 0 1 7 2 15 2 13 0 15 -28 15
-195z m2250 -180 c0 -11 -12 -15 -50 -15 -38 0 -50 4 -50 15 0 11 12 15 50 15
38 0 50 -4 50 -15z m-6460 -25 c0 -6 -78 -10 -215 -10 -137 0 -215 4 -215 10
0 6 78 10 215 10 137 0 215 -4 215 -10z m400 -42 c0 -12 -39 -116 -65 -175
-14 -31 -13 -37 25 -123 45 -102 47 -113 23 -108 -16 3 -93 173 -93 205 0 8
15 51 33 96 19 45 37 90 40 100 7 19 37 24 37 5z m6523 -4 c5 -6 -33 -116 -57
-162 -11 -22 -9 -34 19 -101 48 -115 50 -121 26 -121 -15 0 -24 14 -42 68 -12
37 -28 79 -35 94 -12 24 -10 35 28 127 40 97 47 108 61 95z m-6213 -194 c0
-162 -2 -190 -15 -190 -13 0 -15 28 -15 190 0 162 2 190 15 190 13 0 15 -28
15 -190z m480 -10 c0 -184 -1 -200 -17 -200 -17 0 -18 15 -15 200 2 167 5 200
17 200 13 0 15 -31 15 -200z m1750 20 c0 -113 -4 -180 -10 -180 -6 0 -10 51
-10 134 0 73 -3 154 -6 180 -6 38 -4 46 10 46 14 0 16 -20 16 -180z m570 -10
c0 -164 -2 -189 -15 -184 -13 5 -15 36 -15 190 0 157 2 184 15 184 13 0 15
-28 15 -190z m1170 0 c0 -162 -2 -190 -15 -190 -13 0 -15 28 -15 190 0 162 2
190 15 190 13 0 15 -28 15 -190z m-5642 -8 c2 -177 2 -182 -18 -182 -19 0 -20
6 -20 178 0 98 3 182 7 186 22 22 28 -12 31 -182z m3432 -2 c0 -183 -1 -190
-20 -190 -19 0 -20 7 -20 190 0 183 1 190 20 190 19 0 20 -7 20 -190z m1530 5
c0 -158 -2 -185 -15 -185 -13 0 -15 27 -15 185 0 158 2 185 15 185 13 0 15
-27 15 -185z m210 -10 c0 -179 -1 -195 -17 -195 -17 0 -18 16 -18 187 0 188 1
193 33 202 1 1 2 -87 2 -194z m1650 -5 c0 -166 -2 -200 -14 -200 -12 0 -15 34
-16 200 -1 174 1 200 15 200 13 0 15 -27 15 -200z m-2430 -180 c0 -19 -7 -20
-220 -20 -213 0 -220 1 -220 20 0 19 7 20 220 20 213 0 220 -1 220 -20z
m-3450 -9 c0 -6 -91 -10 -220 -11 -145 0 -220 3 -220 10 0 6 76 10 220 10 129
0 220 -4 220 -9z m-942 -251 c1 -101 0 -190 -2 -196 -3 -7 -13 -10 -23 -8 -17
5 -18 19 -15 200 3 178 4 195 20 192 15 -3 17 -23 20 -188z m1672 -5 c0 -167
-2 -195 -15 -195 -13 0 -15 28 -15 188 0 104 3 192 7 195 19 20 23 -10 23
-188z m480 0 c0 -167 -2 -195 -15 -195 -13 0 -15 28 -15 195 0 167 2 195 15
195 13 0 15 -28 15 -195z m2810 -2 c0 -165 -2 -193 -15 -193 -13 0 -15 28 -15
193 0 166 2 194 15 194 13 0 15 -28 15 -194z m-3470 -11 c0 -170 -2 -199 -15
-199 -13 0 -15 29 -15 199 0 169 2 198 15 198 13 0 15 -29 15 -198z m1940 3
c0 -188 -1 -195 -20 -195 -19 0 -20 7 -20 195 0 188 1 195 20 195 19 0 20 -7
20 -195z m1740 -2 c0 -190 0 -193 -21 -193 -17 0 -20 4 -15 23 3 12 6 99 6
193 0 145 2 171 15 171 13 0 15 -28 15 -194z m2120 17 c0 -159 -2 -180 -16
-180 -11 0 -14 5 -10 16 3 9 6 90 6 180 0 103 4 164 10 164 6 0 10 -67 10
-180z m188 135 c8 -22 39 -98 68 -168 63 -149 64 -150 44 -154 -16 -3 -87 152
-135 295 -21 65 -22 73 -8 70 10 -2 24 -21 31 -43z m567 -67 c21 -62 48 -135
60 -163 32 -74 38 -105 21 -105 -19 0 -56 82 -112 245 -24 71 -44 131 -44 132
0 2 8 3 18 3 15 0 27 -24 57 -112z m-7585 -90 c0 -181 -1 -188 -20 -188 -19 0
-20 7 -20 174 0 185 2 203 25 203 13 0 15 -30 15 -189z m609 98 c23 -51 41
-97 41 -102 1 -19 -76 -173 -88 -178 -17 -7 -10 16 33 110 l32 70 -43 85 c-47
91 -52 109 -30 109 8 0 31 -40 55 -94z m5761 -94 c0 -161 -2 -189 -15 -189
-13 0 -15 28 -15 189 0 160 2 188 15 188 13 0 15 -28 15 -188z m-1190 21 c0
-87 3 -168 6 -180 5 -18 2 -23 -12 -23 -18 0 -19 11 -19 180 0 137 3 180 13
180 9 0 12 -38 12 -157z m930 -198 c0 -12 -37 -15 -241 -17 -132 -2 -242 -1
-244 0 -2 2 -1 10 2 18 8 21 483 21 483 -1z m-562 -11 c104 -13 48 -22 -138
-24 -165 -1 -190 1 -190 15 0 13 20 15 138 15 75 0 161 -3 190 -6z m-5048 -15
c0 -11 20 -10 -232 -12 -164 -2 -208 1 -208 11 0 10 47 12 220 12 128 -1 220
-5 220 -11z m2250 -1 c0 -10 -98 -13 -462 -11 -255 2 -487 3 -515 3 -29 0 -53
5 -53 10 0 7 178 10 515 10 405 0 515 -3 515 -12z m1180 2 c0 -6 -82 -10 -225
-10 -143 0 -225 4 -225 10 0 6 82 10 225 10 143 0 225 -4 225 -10z m2910 -240
c0 -171 -2 -200 -15 -200 -13 0 -15 28 -15 193 0 107 3 197 7 200 19 20 23
-10 23 -193z m-7300 -10 c0 -193 -1 -200 -20 -200 -19 0 -20 7 -20 200 0 193
1 200 20 200 19 0 20 -7 20 -200z m4470 -7 c0 -165 -2 -193 -15 -193 -13 0
-15 28 -15 193 0 166 2 194 15 194 13 0 15 -28 15 -194z m490 7 c0 -162 -2
-190 -15 -190 -13 0 -15 28 -15 190 0 162 2 190 15 190 13 0 15 -28 15 -190z
m359 134 c17 -31 33 -66 37 -78 4 -11 17 -43 29 -71 28 -60 55 -126 55 -131 0
-2 -8 -4 -17 -4 -13 0 -26 21 -47 73 -16 39 -48 111 -72 159 -48 95 -51 108
-30 108 8 0 28 -25 45 -56z m1514 -136 c3 -106 3 -196 1 -200 -3 -4 -11 -5
-19 -1 -21 8 -22 393 -2 393 11 0 15 -41 20 -192z m-5161 -8 c-2 -158 -5 -190
-17 -190 -13 0 -15 30 -15 190 0 174 1 190 18 190 16 0 17 -15 14 -190z m1538
0 c0 -162 -2 -190 -15 -190 -13 0 -15 28 -15 190 0 162 2 190 15 190 13 0 15
-28 15 -190z m220 0 c0 -183 -1 -190 -20 -190 -19 0 -20 7 -20 190 0 183 1
190 20 190 19 0 20 -7 20 -190z m470 0 c0 -162 -2 -190 -15 -190 -13 0 -15 28
-15 190 0 162 2 190 15 190 13 0 15 -28 15 -190z m2590 181 c0 -4 -27 -71 -60
-149 -33 -77 -60 -147 -60 -156 0 -16 -21 -22 -33 -10 -3 3 15 54 40 112 25
59 55 131 66 159 12 29 28 53 35 53 6 0 12 -4 12 -9z m1779 -28 c8 -21 38 -96
67 -167 30 -71 53 -130 52 -131 -9 -8 -50 18 -58 37 -56 136 -109 277 -110
291 0 4 8 7 18 7 12 0 23 -13 31 -37z m-6937 21 c5 -4 -50 -153 -107 -291 -16
-39 -45 -59 -45 -32 0 8 43 128 111 307 8 21 29 29 41 16z m6408 -15 c0 -6 29
-77 65 -158 36 -82 65 -151 65 -155 0 -3 -8 -6 -17 -6 -14 0 -34 38 -81 153
-34 83 -62 158 -62 165 0 6 7 12 15 12 8 0 15 -5 15 -11z m-6636 -355 c127
-18 -2 -24 -499 -24 -478 0 -545 2 -545 15 0 13 62 15 499 15 274 0 519 -3
545 -6z m2026 -9 c0 -13 -83 -15 -690 -15 -607 0 -690 2 -690 15 0 13 83 15
690 15 607 0 690 -2 690 -15z m710 -2 c0 -10 -36 -13 -180 -13 -157 0 -180 2
-180 16 0 13 22 15 180 13 143 -2 180 -5 180 -16z m1055 2 c0 -6 -74 -11 -197
-13 -173 -2 -198 0 -198 13 0 13 25 15 198 13 123 -2 197 -7 197 -13z m1415 0
c0 -13 -53 -15 -420 -15 -367 0 -420 2 -420 15 0 13 53 15 420 15 367 0 420
-2 420 -15z m920 -1 c0 -9 -44 -13 -170 -14 -150 -1 -170 1 -170 15 0 15 19
16 170 14 125 -2 170 -6 170 -15z m1090 -4 c0 -5 -83 -10 -205 -12 -159 -2
-205 0 -205 10 0 9 48 12 205 12 124 0 205 -4 205 -10z m-3927 -840 c316 0
367 -2 367 -15 0 -13 -88 -15 -680 -15 l-680 0 0 21 0 21 313 -6 c171 -3 477
-5 680 -6z m2147 -7 c0 -10 -103 -13 -480 -13 -423 0 -480 2 -480 15 0 14 56
15 480 13 376 -2 480 -6 480 -15z m-4743 -18 c0 -13 -34 -15 -242 -15 -208 0
-242 2 -242 15 0 13 34 15 242 15 208 0 242 -2 242 -15z m1413 0 c0 -13 -34
-15 -250 -15 -216 0 -250 2 -250 15 0 13 34 15 250 15 216 0 250 -2 250 -15z
m-1410 -255 c0 -198 0 -201 -20 -190 -19 10 -20 21 -20 194 0 100 3 186 7 189
3 4 12 7 20 7 10 0 13 -40 13 -200z m940 -5 c0 -198 -1 -205 -20 -205 -19 0
-20 7 -20 205 0 198 1 205 20 205 19 0 20 -7 20 -205z m470 12 c0 -166 -2
-194 -15 -194 -13 0 -15 28 -15 194 0 165 2 193 15 193 13 0 15 -28 15 -193z
m-1898 173 c1 8 5 -68 8 -170 3 -102 2 -192 -2 -200 -4 -8 -8 -10 -8 -5 0 6
-5 3 -10 -5 -6 -10 -10 54 -10 190 0 136 4 200 10 190 9 -13 10 -13 12 0z
m2118 -185 c0 -169 -1 -175 -20 -175 -20 0 -21 6 -20 175 1 166 3 175 21 175
18 0 19 -9 19 -175z m1370 165 c0 -6 34 -79 75 -163 87 -179 96 -207 67 -207
-13 0 -23 9 -27 23 -4 12 -38 87 -75 167 -85 180 -88 190 -61 190 12 0 21 -5
21 -10z m716 -18 c-11 -34 -123 -281 -138 -303 -8 -12 -19 -19 -25 -16 -16 10
93 274 130 315 24 26 41 29 33 4z m1103 -34 c13 -29 38 -87 56 -128 18 -41 39
-91 48 -111 16 -35 15 -37 -2 -42 -16 -4 -25 11 -57 92 -21 53 -53 125 -71
159 -18 35 -31 68 -27 73 13 21 31 6 53 -43z m-2099 -305 c0 -10 -52 -13 -275
-13 -151 0 -278 0 -282 -1 -5 0 -10 7 -11 16 -3 15 23 16 282 14 231 -2 286
-5 286 -16z m1774 11 c45 -17 -6 -23 -224 -24 -209 0 -240 1 -240 15 0 13 30
15 224 15 123 0 231 -3 240 -6z m506 -69 c0 -13 -32 -15 -230 -15 -198 0 -230
2 -230 15 0 13 32 15 230 15 198 0 230 -2 230 -15z m-3627 -2 c-7 -2 -13 -13
-13 -24 0 -10 -17 -63 -39 -116 -21 -54 -51 -135 -66 -180 -21 -64 -32 -83
-46 -83 -17 0 -17 6 10 78 86 232 114 302 122 302 5 0 9 7 9 15 0 8 8 15 18
14 10 0 12 -3 5 -6z m-1806 -23 c-3 -11 0 -18 6 -17 6 1 22 -32 34 -73 13 -41
35 -109 49 -150 15 -41 29 -86 32 -100 3 -14 12 -30 20 -36 12 -9 11 -11 -9
-9 -18 1 -27 12 -40 46 -59 160 -73 200 -90 261 -22 78 -23 98 -8 98 6 0 9 -9
6 -20z m483 0 c4 7 11 1 18 -17 21 -54 132 -370 132 -376 0 -4 -8 -7 -17 -7
-13 0 -24 19 -40 63 -12 34 -40 112 -61 172 -33 93 -66 211 -46 166 5 -10 8
-10 14 -1z m806 -27 c-4 -36 -29 -109 -61 -178 -7 -16 -19 -51 -25 -77 -7 -26
-16 -46 -20 -43 -4 3 -11 -2 -14 -11 -4 -9 -9 -14 -12 -11 -8 7 118 357 128
357 5 0 7 -17 4 -37z m774 -174 c0 -182 -1 -189 -20 -189 -19 0 -20 7 -20 188
0 104 3 191 6 195 3 3 12 3 20 0 11 -4 14 -41 14 -194z m471 13 c1 -100 0
-185 -3 -188 -3 -2 -11 -2 -19 1 -11 4 -13 38 -11 182 2 122 7 180 15 185 6 4
12 6 14 5 1 -1 3 -85 4 -185z m741 86 l40 -97 -38 -92 c-36 -85 -56 -111 -71
-95 -3 3 13 48 37 101 l43 95 -42 86 c-45 95 -48 107 -25 102 9 -2 32 -43 56
-100z m428 -98 c0 -153 -3 -200 -12 -200 -10 0 -12 45 -10 200 2 119 7 200 12
200 6 0 10 -79 10 -200z m220 8 c0 -181 -1 -188 -20 -188 -19 0 -20 7 -20 189
0 184 1 190 20 188 19 -1 20 -8 20 -189z m480 -4 c0 -177 -1 -184 -20 -184
-19 0 -20 7 -20 184 0 181 4 205 33 189 4 -2 7 -87 7 -189z m-1250 -189 c0
-13 -38 -15 -280 -15 -242 0 -280 2 -280 15 0 13 38 15 280 15 242 0 280 -2
280 -15z m2020 0 c0 -13 -47 -15 -360 -15 -313 0 -360 2 -360 15 0 13 47 15
360 15 313 0 360 -2 360 -15z m-4889 -235 c59 -178 69 -223 47 -214 -17 6 -95
223 -110 307 -7 37 -16 67 -20 67 -5 0 -8 5 -8 11 0 6 7 9 16 7 11 -2 34 -57
75 -178z m3258 122 c-5 -15 -14 -36 -19 -47 -23 -49 -59 -143 -69 -180 -15
-55 -26 -69 -46 -61 -12 4 -14 10 -8 19 6 6 18 37 28 67 20 61 55 154 80 213
13 31 19 36 30 27 10 -9 11 -18 4 -38z m556 -112 c41 -85 75 -161 75 -167 0
-7 -8 -13 -17 -13 -13 1 -38 43 -90 159 -40 87 -73 163 -73 170 0 7 7 11 15 9
9 -2 48 -70 90 -158z m-3005 143 c0 -15 -69 -218 -93 -277 -23 -53 -40 -75
-59 -76 -8 0 0 26 52 165 71 186 75 195 88 195 6 0 12 -3 12 -7z m485 -10 c-4
-10 -31 -83 -60 -163 -82 -223 -75 -209 -86 -182 -6 17 -1 42 20 95 15 40 43
116 60 170 27 80 36 97 53 97 15 0 18 -4 13 -17z m485 -178 c0 -188 -1 -195
-20 -195 -19 0 -20 7 -20 195 0 188 1 195 20 195 19 0 20 -7 20 -195z m-1332
158 c41 -108 112 -322 112 -336 0 -12 -6 -17 -17 -15 -36 7 -147 378 -114 378
5 0 13 -12 19 -27z m4565 -158 c48 -96 87 -180 87 -185 0 -6 -8 -10 -17 -10
-13 0 -41 48 -101 172 -75 154 -89 198 -65 198 5 0 48 -79 96 -175z m-1925
-202 c-2 -10 -7 -17 -11 -15 -4 1 -180 2 -392 2 -336 0 -385 2 -385 15 0 13
51 15 396 15 371 0 395 -1 392 -17z m1582 2 c0 -13 -47 -15 -365 -15 -318 0
-365 2 -365 15 0 13 47 15 365 15 318 0 365 -2 365 -15z m560 -235 c0 -180 -2
-210 -15 -210 -13 0 -15 30 -15 210 0 180 2 210 15 210 13 0 15 -30 15 -210z
m-5070 184 c0 -9 27 -98 60 -198 33 -100 60 -185 60 -189 0 -4 -8 -7 -17 -7
-14 0 -27 27 -56 113 -66 190 -89 280 -74 289 19 12 27 10 27 -8z m860 -176
c-38 -96 -70 -182 -70 -191 0 -10 -7 -17 -15 -17 -20 0 -19 15 10 99 58 172
108 290 124 293 9 2 17 1 19 -2 1 -4 -29 -85 -68 -182z m1230 -28 c0 -182 -2
-209 -15 -204 -13 5 -15 38 -15 210 0 175 2 204 15 204 13 0 15 -30 15 -210z
m-470 0 c0 -110 -2 -200 -4 -200 -2 0 -11 3 -20 6 -14 5 -16 32 -16 200 0 187
1 194 20 194 19 0 20 -7 20 -200z m2980 -10 c0 -171 -2 -200 -15 -200 -13 0
-15 29 -15 200 0 171 2 200 15 200 13 0 15 -29 15 -200z m-640 -170 c0 -21 -4
-21 -277 -18 -254 3 -276 4 -279 21 -2 16 17 17 277 17 274 0 279 0 279 -20z
m555 -50 c0 -13 -33 -15 -229 -18 -133 -1 -234 2 -239 7 -27 27 9 31 236 29
198 -3 232 -5 232 -18z m-4305 -50 c10 -12 28 -58 40 -103 12 -45 35 -118 51
-163 34 -96 34 -93 9 -91 -16 1 -27 25 -61 127 -64 194 -79 250 -67 250 6 0
19 -9 28 -20z m3317 -155 c19 -38 45 -95 58 -128 20 -49 22 -59 9 -64 -8 -3
-17 -4 -19 -1 -2 2 -24 49 -48 104 -25 54 -60 132 -78 172 -28 62 -31 75 -19
82 12 7 20 -2 39 -43 13 -29 40 -83 58 -122z m-2807 155 c0 -13 -26 -90 -67
-195 -46 -118 -64 -155 -73 -155 -4 0 -4 15 0 33 6 25 79 244 105 315 5 14 35
17 35 2z m900 -180 c0 -120 -4 -190 -10 -190 -6 0 -10 70 -10 190 0 120 4 190
10 190 6 0 10 -70 10 -190z m470 -6 c0 -132 -3 -195 -10 -192 -8 2 -15 275
-10 383 0 3 5 5 10 5 6 0 10 -72 10 -196z m2837 174 c-7 -30 -131 -336 -140
-344 -3 -4 -13 -4 -21 -1 -12 5 -4 32 41 144 30 76 61 152 69 170 8 17 14 36
14 42 0 6 10 11 21 11 17 0 20 -5 16 -22z m-4390 -384 c0 -11 -19 -14 -94 -14
-82 0 -93 2 -93 18 0 15 10 17 93 14 73 -3 94 -6 94 -18z m1396 21 c73 -5 97
-11 97 -21 0 -11 -33 -14 -180 -14 -165 0 -180 1 -180 18 0 14 12 17 83 20 45
2 126 1 180 -3z m2797 -20 c0 -13 -67 -15 -545 -15 -478 0 -545 2 -545 15 0
13 67 15 545 15 478 0 545 -2 545 -15z"/>
<path d="M9290 6071 c0 -6 4 -13 10 -16 6 -3 7 1 4 9 -7 18 -14 21 -14 7z"/>
</g>
</svg>
